<?xml version="1.0" encoding="UTF-8" standalone="no"?>
<!-- Created with Inkscape (http://www.inkscape.org/) -->

<svg
   width="210mm"
   height="297mm"
   viewBox="0 0 210 297"
   version="1.1"
   id="svg5"
   xml:space="preserve"
   inkscape:version="1.2.1 (9c6d41e410, 2022-07-14)"
   sodipodi:docname="racoon-dice.svg"
   xmlns:inkscape="http://www.inkscape.org/namespaces/inkscape"
   xmlns:sodipodi="http://sodipodi.sourceforge.net/DTD/sodipodi-0.dtd"
   xmlns="http://www.w3.org/2000/svg"
   xmlns:svg="http://www.w3.org/2000/svg"><sodipodi:namedview
     id="namedview7"
     pagecolor="#ffffff"
     bordercolor="#666666"
     borderopacity="1.0"
     inkscape:showpageshadow="2"
     inkscape:pageopacity="0.0"
     inkscape:pagecheckerboard="0"
     inkscape:deskcolor="#d1d1d1"
     inkscape:document-units="mm"
     showgrid="false"
     inkscape:zoom="1.3932941"
     inkscape:cx="333.74147"
     inkscape:cy="373.21626"
     inkscape:window-width="1920"
     inkscape:window-height="1011"
     inkscape:window-x="0"
     inkscape:window-y="0"
     inkscape:window-maximized="1"
     inkscape:current-layer="layer1" /><defs
     id="defs2"><clipPath
       clipPathUnits="userSpaceOnUse"
       id="clipPath428"><rect
         style="fill:#ffffff;stroke-width:0.3556"
         id="rect430"
         width="81.163673"
         height="72.280876"
         x="11.107829"
         y="93.044128" /></clipPath></defs><g
     inkscape:label="Camada 1"
     inkscape:groupmode="layer"
     id="layer1"><g
       id="g1350"><path
         style="fill:#000000;stroke-width:0.264583"
         d="m 130.18359,146.16188 c -27.3448,-3.84245 -38.866639,-31.97357 -22.21081,-54.228739 7.41969,-9.914024 18.50034,-14.008923 33.11539,-12.237929 l 2.72146,0.329776 -5.55625,0.174778 c -14.81656,0.466071 -22.05187,3.680086 -28.74819,12.770295 -9.560699,12.978579 -8.9498,32.227309 1.31769,41.519259 1.43053,1.29461 4.54405,-4.56946 4.54405,-8.55835 v -1.47746 l -1.46999,-0.45265 c -2.91925,-0.89892 -4.79379,-2.47602 -5.93687,-4.99484 -0.73198,-1.61297 -0.63502,-2.18506 0.12358,-0.72913 2.23347,4.28653 7.82556,5.41825 17.73432,3.58903 9.85442,-1.81918 9.9725,-1.83472 13.89062,-1.82808 8.60977,0.0146 16.58452,1.97862 24.6724,6.07637 3.88046,1.96606 3.73883,1.70212 2.14657,4.00026 -8.78766,12.68339 -21.21968,18.17266 -36.34397,16.04741 z m 8.30041,-2.14857 c 3.23287,-0.53405 4.89555,-14.96385 2.40974,-20.91325 -0.35154,-0.84135 -0.41743,-0.87212 -1.86773,-0.87212 h -1.50332 l 0.17339,0.99219 c 1.12278,6.42491 -0.29113,14.85551 -3.21569,19.17396 -0.42194,0.62305 -0.85398,1.28164 -0.9601,1.46354 -0.21441,0.36755 3.05955,0.47024 4.96371,0.15568 z m -7.21092,-1.47352 c 2.30837,-4.52478 3.30441,-12.38259 2.21902,-17.50587 -0.49317,-2.32784 -0.0814,-2.17961 -3.74889,-1.34939 -0.50657,0.11467 -0.5931,0.36643 -0.74951,2.18079 -0.39696,4.60479 -1.82319,8.93677 -4.33805,13.17626 l -1.56202,2.63324 0.6676,0.35648 c 0.57095,0.30488 5.65266,1.5379 6.61542,1.60516 0.17895,0.0125 0.58234,-0.481 0.89643,-1.09667 z m 14.59046,0.3079 c 4.09597,-1.0458 4.65568,-2.07535 4.88086,-8.97808 0.20714,-6.34944 -0.93951,-10.24341 -3.18267,-10.80825 -2.00424,-0.50467 -2.38636,-0.43007 -2.1686,0.42335 1.62039,6.3506 1.02055,13.98127 -1.48711,18.91771 -0.27721,0.5457 -0.43214,0.99219 -0.34429,0.99219 0.0879,0 1.12367,-0.24612 2.30181,-0.54692 z m -23.97778,-4.1777 c 1.96338,-3.43039 2.80095,-6.47076 2.94797,-10.70102 l 0.1269,-3.65169 -0.62967,0.15769 c -0.34631,0.0867 -1.75491,0.18848 -3.13021,0.2261 l -2.50055,0.0684 -0.33241,1.80105 c -0.4997,2.70749 -1.97283,5.65823 -4.25202,8.51694 -1.31916,1.65458 -1.22928,1.75938 3.7647,4.3895 2.86731,1.51009 2.65458,1.55295 4.00529,-0.80699 z m 53.01241,-38.62473 c 0,-4.028809 -3.2437,-10.248149 -7.35399,-14.100222 l -2.08006,-1.949394 0.24184,-1.058333 c 0.95854,-4.194655 -0.85926,-12.567708 -2.72847,-12.567708 -2.0737,0 -4.37612,7.696432 -3.07978,10.294997 0.2243,0.449626 0.38718,0.816214 0.36196,0.81464 -0.0252,-0.0016 -0.59876,-0.170664 -1.2745,-0.375754 -3.07573,-0.933475 -9.32454,-1.070046 -11.46033,-0.250467 -1.48648,0.570415 0.74782,-1.366935 5.14833,-4.464105 l 1.98438,-1.396642 0.13229,-1.609794 c 0.24967,-3.03813 2.14078,-3.268847 2.78414,-0.339666 0.32914,1.49859 1.59995,0.991741 2.38768,-0.952307 2.06891,-5.105882 4.57698,-4.449923 6.06557,1.58639 0.45626,1.850119 0.45886,1.853626 2.45745,3.307291 4.05168,2.94698 7.33695,8.120054 8.21108,12.929395 l 0.25218,1.3875 -0.62801,-0.58998 c -0.75804,-0.71215 -0.76584,-0.63168 -0.12574,1.29654 0.27625,0.83215 0.58266,2.28691 0.68092,3.23279 l 0.17864,1.719802 -0.6714,-0.793752 -0.6714,-0.79375 -0.0124,1.719792 c -0.0152,2.10219 -0.26187,3.704167 -0.57039,3.704167 -0.12647,0 -0.22996,-0.33814 -0.22996,-0.75143 z"
         id="path1231"
         sodipodi:nodetypes="ssscsssscssssssssssscssssssssscssssssssssssccscssssssscssssssscsssssscssscccssss" /><g
         id="g1167"
         transform="matrix(1.2369616,0.66458862,-0.66458862,1.2369616,80.780527,-124.07118)"><path
           style="fill:#000000;stroke-width:0.264583"
           d="m 102.26437,141.07554 c -1.63256,-0.30681 -8.473082,-6.25475 -9.50644,-8.26599 -1.328799,-2.58627 1.213256,-12.75886 3.549097,-14.20249 0.772983,-0.47773 9.823683,-3.20441 10.636433,-3.20441 0.21323,0 0.28899,-0.20203 0.20137,-0.53707 -0.74038,-2.83121 7.39637,-9.91814 10.5749,-9.2105 1.47829,0.32912 6.49098,1.75955 7.37358,2.10415 2.3968,0.93578 5.12055,9.54942 3.92916,12.42567 -1.05254,2.54107 -7.75679,7.5454 -9.78644,7.30502 l -1.20376,-0.14257 -0.8958,3.88338 c -1.52301,6.60235 -1.73753,6.82936 -8.08991,8.561 -5.46887,1.49081 -5.57443,1.51079 -6.78219,1.28381 z m 6.54193,-1.99692 c 6.10287,-1.72921 6.07748,-1.70206 7.68706,-8.21708 1.08821,-4.40469 1.20144,-5.55841 0.58457,-5.95618 -0.26211,-0.16902 -10.04064,2.47464 -10.99288,2.97196 -0.70543,0.36843 -0.78693,0.61855 -2.20326,6.76204 -1.50858,6.54362 -1.74626,6.32937 4.92451,4.43926 z m -6.53041,-0.45675 c 0.6509,-2.03927 2.4131,-9.50465 2.4131,-10.22286 0,-0.78919 -7.594778,-8.49557 -8.586877,-8.71306 -0.683035,-0.14974 -1.281208,1.26929 -2.302715,5.46265 -1.643061,6.74489 -1.7024,6.54994 3.470353,11.40118 4.046349,3.79483 4.408429,3.9447 5.006139,2.07209 z m 9.1019,-12.87037 c 5.65686,-1.67054 5.63745,-1.66243 5.30784,-2.21752 -0.49495,-0.83353 -7.16077,-6.90053 -7.95325,-7.23877 -1.72624,-0.73679 -11.980894,1.74982 -11.980894,2.90519 0,0.36024 7.326964,7.22304 8.293824,7.7684 0.79112,0.44623 0.52827,0.49676 6.33248,-1.2173 z m 7.91128,-3.39506 c -1.13795,-5.28454 -1.31179,-5.84519 -1.91204,-6.16643 -0.97933,-0.52413 -9.25187,-2.93315 -9.51465,-2.77074 -0.47037,0.29071 -0.31228,1.9847 0.20004,2.14363 3.2264,1.00089 10.12032,8.0553 10.12032,10.35593 0,0.64881 0.12663,0.84523 0.59531,0.92343 1.36462,0.22769 1.42045,-0.26246 0.51102,-4.48582 z m 5.72157,1.116 c 4.18562,-3.78436 4.17366,-3.74414 2.82562,-9.49865 -1.33502,-5.69892 -0.99024,-5.60584 -5.54225,-1.49623 -4.34231,3.9203 -4.09073,3.13058 -2.76984,8.69464 1.51323,6.37428 1.14925,6.22168 5.48647,2.30024 z m -2.85915,-11.49613 c 3.91365,-3.71737 3.99958,-3.36366 -1.19596,-4.92286 -5.49729,-1.64976 -5.21628,-1.71874 -9.71811,2.38563 -4.01406,3.65968 -4.25584,3.12332 2.25751,5.00797 4.89362,1.41598 4.42329,1.55022 8.65656,-2.47074 z"
           id="path540" /><ellipse
           style="fill:#000000;stroke-width:0.234943"
           id="path596-3"
           cx="97.114426"
           cy="124.8764"
           rx="1.18288"
           ry="1.5783728" /><ellipse
           style="fill:#000000;stroke-width:0.234943"
           id="path596-6"
           cx="98.443306"
           cy="130.3873"
           rx="1.18288"
           ry="1.5783728" /><ellipse
           style="fill:#000000;stroke-width:0.234943"
           id="path596-7"
           cx="100.23141"
           cy="135.43898"
           rx="1.18288"
           ry="1.5783728" /><ellipse
           style="fill:#000000;stroke-width:0.234943"
           id="path596-5"
           cx="-56.629406"
           cy="151.51318"
           rx="1.18288"
           ry="1.5783728"
           transform="rotate(-61.844777)" /><ellipse
           style="fill:#000000;stroke-width:0.234943"
           id="path596-62"
           cx="161.7787"
           cy="61.808304"
           rx="1.18288"
           ry="1.5783728"
           transform="rotate(30.267047)" /><ellipse
           style="fill:#000000;stroke-width:0.234943"
           id="path596-62-7"
           cx="162.97784"
           cy="54.725094"
           rx="1.18288"
           ry="1.5783728"
           transform="rotate(30.267047)" /><ellipse
           style="fill:#000000;stroke-width:0.176865"
           id="path596-62-6"
           cx="-131.57323"
           cy="87.774254"
           rx="0.89047319"
           ry="1.1882005"
           transform="rotate(-101.60812)" /><ellipse
           style="fill:#000000;stroke-width:0.176865"
           id="path596-62-6-8"
           cx="-132.84528"
           cy="89.887421"
           rx="0.89047319"
           ry="1.1882005"
           transform="rotate(-101.60812)" /><ellipse
           style="fill:#000000;stroke-width:0.176865"
           id="path596-62-6-9"
           cx="-134.08717"
           cy="92.166351"
           rx="0.89047319"
           ry="1.1882005"
           transform="rotate(-101.60812)" /><ellipse
           style="fill:#000000;stroke-width:0.176865"
           id="path596-62-6-7"
           cx="-131.68633"
           cy="96.986038"
           rx="0.89047319"
           ry="1.1882005"
           transform="rotate(-101.60812)" /><ellipse
           style="fill:#000000;stroke-width:0.176865"
           id="path596-62-6-3"
           cx="-130.5182"
           cy="94.604485"
           rx="0.89047319"
           ry="1.1882005"
           transform="rotate(-101.60812)" /><ellipse
           style="fill:#000000;stroke-width:0.176865"
           id="path596-62-6-6"
           cx="-129.10707"
           cy="92.230637"
           rx="0.89047319"
           ry="1.1882005"
           transform="rotate(-101.60812)" /><ellipse
           style="fill:#000000;stroke-width:0.171722"
           id="path596-62-2"
           cx="7.4666367"
           cy="-163.96744"
           rx="0.88434929"
           ry="1.1278542"
           transform="matrix(-0.54276233,0.83988633,-0.72899915,-0.6845146,0,0)" /><ellipse
           style="fill:#000000;stroke-width:0.173764"
           id="path596-62-3"
           cx="137.74875"
           cy="99.764076"
           rx="0.85639602"
           ry="1.1925277"
           transform="matrix(0.99087504,0.1347837,-0.12358002,0.99233461,0,0)" /><ellipse
           style="fill:#000000;stroke-width:0.173764"
           id="path596-62-3-1"
           cx="138.32031"
           cy="94.883224"
           rx="0.85639602"
           ry="1.1925277"
           transform="matrix(0.99087504,0.1347837,-0.12358002,0.99233461,0,0)" /><ellipse
           style="fill:#000000;stroke-width:0.173764"
           id="path596-62-3-2"
           cx="137.02557"
           cy="103.89288"
           rx="0.85639602"
           ry="1.1925277"
           transform="matrix(0.99087504,0.1347837,-0.12358002,0.99233461,0,0)" /><ellipse
           style="fill:#000000;stroke-width:0.173764"
           id="path596-62-3-9"
           cx="140.423"
           cy="99.901276"
           rx="0.85639602"
           ry="1.1925277"
           transform="matrix(0.99087504,0.1347837,-0.12358002,0.99233461,0,0)" /><ellipse
           style="fill:#000000;stroke-width:0.173764"
           id="path596-62-3-3"
           cx="134.78105"
           cy="99.572845"
           rx="0.85639602"
           ry="1.1925277"
           transform="matrix(0.99087504,0.1347837,-0.12358002,0.99233461,0,0)" /></g></g></g></svg>
